# This file uses centimeters as units for non-parametric coordinates.

mtllib island_2_1.mtl
g default
v -10.520709 16.039650 -18.933439
v -10.315449 15.459088 -18.933439
v -10.931228 15.459088 -18.933439
v -11.239118 15.459088 -18.400160
v -11.136488 16.039650 -18.577919
v -10.623339 16.329931 -18.400160
v -0.205260 -14.878528 0.355520
v -0.615779 -14.588246 0.000000
v -0.205260 -14.878528 -0.355520
v 0.307889 -14.588246 -0.533280
v 0.410519 -14.878528 -0.000000
v 0.307889 -14.588246 0.533280
v 21.657194 16.039650 -0.355520
v 21.246675 16.329931 0.000000
v 21.657194 16.039650 0.355520
v 21.554565 15.459088 0.533280
v 21.862455 15.459088 0.000000
v 21.554565 15.459088 -0.533280
v -11.136486 16.039650 18.577921
v -11.239116 15.459088 18.400162
v -10.931227 15.459088 18.933441
v -10.315448 15.459088 18.933441
v -10.520707 16.039650 18.933441
v -10.623337 16.329931 18.400162
v -10.963603 15.917402 -18.989515
v 0.000000 -15.092345 0.000000
v 21.927204 15.917402 0.000000
v -10.963601 15.917402 18.989517
vt 0.423333 0.513332
vt 0.414445 0.513332
vt 0.261110 0.513332
vt 0.500000 0.973336
vt 0.576667 0.513332
vt 0.738890 0.513332
vt 0.730002 0.250000
vt 0.384998 0.050813
vt 0.491112 0.973336
vt 0.508888 0.973336
vt 0.585555 0.513332
vt 0.384999 0.449188
vt 0.418692 0.500000
vt 0.379558 0.463875
vt 0.418502 0.511009
vt 0.375000 0.461243
vt 0.414641 0.500000
vt 0.496961 0.993923
vt 0.503039 0.993923
vt 0.495991 0.975947
vt 0.504009 0.975946
vt 0.745442 0.252632
vt 0.581308 0.500000
vt 0.585359 0.500000
vt 0.745442 0.247368
vt 0.581498 0.511010
vt 0.252026 0.500000
vt 0.374999 0.038757
vt 0.746961 0.506077
vt 0.253039 0.506077
vt 0.379557 0.036126
vt 0.747974 0.500000
vt 0.416667 0.500000
vt 0.375000 0.466506
vt 0.500000 1.000000
vt 0.750000 0.250000
vt 0.583333 0.500000
vt 0.250000 0.500000
vt 0.750000 0.500000
vt 0.374999 0.033494
vn 0.451567 -0.319306 -0.833145
vn 0.401165 0.577331 -0.711165
vn 0.415304 0.577331 -0.703002
vn 0.495741 -0.319306 -0.807641
vn -0.014725 0.999566 -0.025504
vn 0.029449 0.999566 -0.000000
vn -0.947308 -0.319306 -0.025504
vn -0.410591 -0.570665 -0.711165
vn -0.405878 -0.583996 -0.703002
vn -0.932584 -0.360954 0.000000
vn 0.466292 -0.360954 -0.807641
vn -0.816469 0.577331 -0.008163
vn -0.816469 0.577331 0.008163
vn -0.014725 0.999566 0.025504
vn -0.947308 -0.319306 0.025504
vn -0.405878 -0.583996 0.703002
vn -0.410591 -0.570665 0.711165
vn 0.466292 -0.360954 0.807641
vn 0.451567 -0.319306 0.833145
vn 0.811756 -0.583996 -0.000000
vn 0.821182 -0.570666 -0.000000
vn 0.495741 -0.319306 0.807641
vn 0.415304 0.577330 0.703002
vn 0.401165 0.577330 0.711166
vn -0.471403 0.333333 -0.816498
vn -0.000000 -1.000000 0.000000
vn 0.942808 0.333336 0.000000
vn -0.471405 0.333333 0.816497
s 1
g pPyramid1
usemtl initialShadingGroup
f 2/1/1 1/13/2 13/23/3 18/5/4
f 1/14/2 6/12/5 14/7/6 13/22/3
f 4/2/7 3/15/8 9/20/9 8/9/10
f 3/15/8 2/1/1 10/4/11 9/20/9
f 6/12/5 5/16/12 19/28/13 24/8/14
f 5/17/12 4/2/7 20/3/15 19/27/13
f 8/9/10 7/18/16 21/30/17 20/3/15
f 7/19/16 12/10/18 22/6/19 21/29/17
f 12/10/18 11/21/20 17/26/21 16/11/22
f 11/21/20 10/4/11 18/5/4 17/26/21
f 16/11/22 15/24/23 23/32/24 22/6/19
f 15/25/23 14/7/6 24/8/14 23/31/24
f 8/9/10 20/3/15 4/2/7
f 10/4/11 2/1/1 18/5/4
f 12/10/18 16/11/22 22/6/19
f 14/7/6 6/12/5 24/8/14
f 5/16/12 6/12/5 1/14/2 25/34/25
f 1/13/2 2/1/1 3/15/8 25/33/25
f 3/15/8 4/2/7 5/17/12 25/33/25
f 11/21/20 12/10/18 7/19/16 26/35/26
f 7/18/16 8/9/10 9/20/9 26/35/26
f 9/20/9 10/4/11 11/21/20 26/35/26
f 17/26/21 18/5/4 13/23/3 27/37/27
f 13/22/3 14/7/6 15/25/23 27/36/27
f 15/24/23 16/11/22 17/26/21 27/37/27
f 23/31/24 24/8/14 19/28/13 28/40/28
f 19/27/13 20/3/15 21/30/17 28/38/28
f 21/29/17 22/6/19 23/32/24 28/39/28
