# This file uses centimeters as units for non-parametric coordinates.

mtllib path_1.mtl
g default
v -3.853568 -2.353568 3.500050
v -3.500050 -2.500000 3.500050
v -3.500050 -2.353568 3.853568
v -3.500050 -2.000050 4.000000
v -3.853568 -2.000050 3.853568
v -4.000000 -2.000050 3.500050
v 3.853568 -2.353568 3.500050
v 4.000000 -2.000050 3.500050
v 3.853568 -2.000050 3.853568
v 3.500050 -2.000050 4.000000
v 3.500050 -2.353568 3.853568
v 3.500050 -2.500000 3.500050
v -3.853568 2.353568 3.500050
v -4.000000 2.000050 3.500050
v -3.853568 2.000050 3.853568
v -3.500050 2.000050 4.000000
v -3.500050 2.353568 3.853568
v -3.500050 2.500000 3.500050
v 3.853568 2.353568 3.500050
v 3.500050 2.500000 3.500050
v 3.500050 2.353568 3.853568
v 3.500050 2.000050 4.000000
v 3.853568 2.000050 3.853568
v 4.000000 2.000050 3.500050
v -3.853568 2.000050 -3.853568
v -4.000000 2.000050 -3.500050
v -3.853568 2.353568 -3.500050
v -3.500050 2.500000 -3.500050
v -3.500050 2.353568 -3.853568
v -3.500050 2.000050 -4.000000
v 3.853568 2.000050 -3.853568
v 3.500050 2.000050 -4.000000
v 3.500050 2.353568 -3.853568
v 3.500050 2.500000 -3.500050
v 3.853568 2.353568 -3.500050
v 4.000000 2.000050 -3.500050
v -3.853568 -2.353568 -3.500050
v -4.000000 -2.000050 -3.500050
v -3.853568 -2.000050 -3.853568
v -3.500050 -2.000050 -4.000000
v -3.500050 -2.353568 -3.853568
v -3.500050 -2.500000 -3.500050
v 3.853568 -2.353568 -3.500050
v 3.500050 -2.500000 -3.500050
v 3.500050 -2.353568 -3.853568
v 3.500050 -2.000050 -4.000000
v 3.853568 -2.000050 -3.853568
v 4.000000 -2.000050 -3.500050
v -3.788595 -2.288595 3.788595
v 3.788595 -2.288595 3.788595
v -3.788595 2.288595 3.788595
v 3.788595 2.288595 3.788595
v -3.788595 2.288595 -3.788595
v 3.788595 2.288595 -3.788595
v -3.788595 -2.288595 -3.788595
v 3.788595 -2.288595 -3.788595
vt 0.390623 0.984377
vt 0.390623 0.024998
vt 0.609377 0.984377
vt 0.640623 0.024998
vt 0.390623 0.225002
vt 0.609377 0.225002
vt 0.640623 0.225002
vt 0.140623 0.024998
vt 0.390623 0.484377
vt 0.609377 0.484377
vt 0.859377 0.225002
vt 0.859377 0.024998
vt 0.609377 0.765623
vt 0.390623 0.725002
vt 0.609377 0.725002
vt 0.609377 0.024998
vt 0.390623 0.265623
vt 0.609377 0.265623
vt 0.390623 0.524998
vt 0.609377 0.524997
vt 0.390623 0.765623
vt 0.359377 0.024998
vt 0.359377 0.225002
vt 0.140623 0.225002
vt 0.375000 0.990046
vt 0.365046 -0.000000
vt 0.384954 -0.000000
vt 0.384954 1.000000
vt 0.375000 0.024216
vt 0.634954 -0.000000
vt 0.625000 0.990046
vt 0.625000 0.024216
vt 0.615046 1.000000
vt 0.615046 -0.000000
vt 0.365046 0.250000
vt 0.375000 0.259954
vt 0.375000 0.225784
vt 0.390322 0.245582
vt 0.625000 0.259954
vt 0.634954 0.250000
vt 0.609678 0.245582
vt 0.625000 0.225784
vt 0.125000 0.233563
vt 0.375000 0.516437
vt 0.375000 0.490046
vt 0.134954 0.250000
vt 0.390322 0.504418
vt 0.625000 0.516437
vt 0.875000 0.233563
vt 0.609678 0.504418
vt 0.865046 0.250000
vt 0.625000 0.490046
vt 0.134954 -0.000000
vt 0.375000 0.759954
vt 0.375000 0.733563
vt 0.125000 0.016437
vt 0.390322 0.745582
vt 0.625000 0.759954
vt 0.865046 -0.000000
vt 0.609678 0.745582
vt 0.875000 0.016437
vt 0.625000 0.733563
vt 0.375000 1.000000
vt 0.375000 0.000000
vt 0.625000 0.000000
vt 0.625000 1.000000
vt 0.375000 0.250000
vt 0.625000 0.250000
vt 0.125000 0.250000
vt 0.375000 0.500000
vt 0.625000 0.500000
vt 0.875000 0.250000
vt 0.125000 0.000000
vt 0.375000 0.750000
vt 0.625000 0.750000
vt 0.875000 0.000000
vn -0.019586 -0.999616 0.019586
vn -0.707043 -0.707042 0.013483
vn -0.707043 -0.707042 -0.013483
vn -0.019586 -0.999616 -0.019586
vn -0.999265 -0.033085 0.019359
vn -0.999265 -0.033085 -0.019359
vn -0.019359 -0.033085 0.999265
vn -0.013483 -0.707043 0.707043
vn 0.013483 -0.707043 0.707043
vn 0.019359 -0.033085 0.999265
vn 0.019586 -0.999616 0.019586
vn -0.706920 -0.022978 0.706920
vn -0.706920 0.022978 0.706920
vn -0.999265 0.033085 0.019359
vn -0.019359 0.033085 0.999265
vn 0.999265 -0.033085 0.019359
vn 0.707043 -0.707042 0.013483
vn 0.707043 -0.707042 -0.013483
vn 0.999265 -0.033085 -0.019359
vn 0.019586 -0.999616 -0.019586
vn 0.706920 -0.022978 0.706920
vn 0.706920 0.022978 0.706920
vn 0.019359 0.033085 0.999265
vn 0.999265 0.033085 0.019359
vn -0.707043 0.707042 0.013483
vn -0.707043 0.707042 -0.013483
vn -0.999265 0.033085 -0.019359
vn -0.019586 0.999616 0.019586
vn -0.019586 0.999616 -0.019586
vn -0.013483 0.707043 0.707043
vn 0.013483 0.707043 0.707043
vn 0.019586 0.999616 0.019586
vn 0.707043 0.707042 0.013483
vn 0.707043 0.707042 -0.013483
vn 0.019586 0.999616 -0.019586
vn 0.999265 0.033085 -0.019359
vn -0.706920 0.022978 -0.706920
vn -0.706920 -0.022978 -0.706920
vn -0.019359 0.033085 -0.999265
vn -0.019359 -0.033085 -0.999265
vn -0.013483 0.707043 -0.707043
vn 0.013483 0.707043 -0.707043
vn 0.019359 0.033085 -0.999265
vn 0.706920 0.022978 -0.706920
vn 0.706920 -0.022978 -0.706920
vn 0.019359 -0.033085 -0.999265
vn -0.013483 -0.707043 -0.707043
vn 0.013483 -0.707043 -0.707043
vn -0.577350 -0.577350 0.577350
vn 0.577350 -0.577350 0.577350
vn -0.577350 0.577350 0.577350
vn 0.577350 0.577350 0.577350
vn -0.577350 0.577350 -0.577350
vn 0.577350 0.577350 -0.577350
vn -0.577350 -0.577350 -0.577350
vn 0.577350 -0.577350 -0.577350
s 1
g pCube1
usemtl initialShadingGroup
f 2/1/1 1/25/2 37/54/3 42/21/4
f 1/26/2 6/22/5 38/8/6 37/53/3
f 4/2/7 3/27/8 11/34/9 10/16/10
f 3/28/8 2/1/1 12/3/11 11/33/9
f 6/22/5 5/29/12 15/37/13 14/23/14
f 5/29/12 4/2/7 16/5/15 15/37/13
f 8/4/16 7/30/17 43/59/18 48/12/19
f 7/31/17 12/3/11 44/13/20 43/58/18
f 10/16/10 9/32/21 23/42/22 22/6/23
f 9/32/21 8/4/16 24/7/24 23/42/22
f 14/23/14 13/35/25 27/46/26 26/24/27
f 13/36/25 18/17/28 28/9/29 27/45/26
f 18/17/28 17/38/30 21/41/31 20/18/32
f 17/38/30 16/5/15 22/6/23 21/41/31
f 20/18/32 19/39/33 35/52/34 34/10/35
f 19/40/33 24/7/24 36/11/36 35/51/34
f 26/24/27 25/43/37 39/56/38 38/8/6
f 25/44/37 30/19/39 40/14/40 39/55/38
f 30/19/39 29/47/41 33/50/42 32/20/43
f 29/47/41 28/9/29 34/10/35 33/50/42
f 32/20/43 31/48/44 47/62/45 46/15/46
f 31/49/44 36/11/36 48/12/19 47/61/45
f 42/21/4 41/57/47 45/60/48 44/13/20
f 41/57/47 40/14/40 46/15/46 45/60/48
f 4/2/7 10/16/10 22/6/23 16/5/15
f 18/17/28 20/18/32 34/10/35 28/9/29
f 30/19/39 32/20/43 46/15/46 40/14/40
f 42/21/4 44/13/20 12/3/11 2/1/1
f 8/4/16 48/12/19 36/11/36 24/7/24
f 38/8/6 6/22/5 14/23/14 26/24/27
f 5/29/12 6/22/5 1/26/2 49/64/49
f 1/25/2 2/1/1 3/28/8 49/63/49
f 3/27/8 4/2/7 5/29/12 49/64/49
f 11/33/9 12/3/11 7/31/17 50/66/50
f 7/30/17 8/4/16 9/32/21 50/65/50
f 9/32/21 10/16/10 11/34/9 50/65/50
f 17/38/30 18/17/28 13/36/25 51/67/51
f 13/35/25 14/23/14 15/37/13 51/67/51
f 15/37/13 16/5/15 17/38/30 51/67/51
f 23/42/22 24/7/24 19/40/33 52/68/52
f 19/39/33 20/18/32 21/41/31 52/68/52
f 21/41/31 22/6/23 23/42/22 52/68/52
f 29/47/41 30/19/39 25/44/37 53/70/53
f 25/43/37 26/24/27 27/46/26 53/69/53
f 27/45/26 28/9/29 29/47/41 53/70/53
f 35/51/34 36/11/36 31/49/44 54/72/54
f 31/48/44 32/20/43 33/50/42 54/71/54
f 33/50/42 34/10/35 35/52/34 54/71/54
f 41/57/47 42/21/4 37/54/3 55/74/55
f 37/53/3 38/8/6 39/56/38 55/73/55
f 39/55/38 40/14/40 41/57/47 55/74/55
f 47/61/45 48/12/19 43/59/18 56/76/56
f 43/58/18 44/13/20 45/60/48 56/75/56
f 45/60/48 46/15/46 47/62/45 56/75/56
